# xmcd CD database file
#
# Track frame offsets:
#	150
#	17590
#	32703
#	50878
#	72185
#	87844
#	100905
#	124604
#	142113
#	164458
#	186650
#
# Disc length: 2916 seconds
#
# Revision: 0
# Processed by: cddbd v1.5.2PL0 Copyright (c) Steve Scherf et al.
# Submitted via: NeoAudio 9.9.9
#
DISCID=9d0b620b
DTITLE=Fabulous Thunderbirds - The Fabulous Thunderbirds
DYEAR=2009
DGENRE=Blues
TTITLE0=Satisfied
TTITLE1=I'll Be Around
TTITLE2=Take Me As I Am
TTITLE3=Do You Know Who I Am
TTITLE4=Payback Time
TTITLE5=Love The  Way You Love
TTITLE6=Got To Bring It With You
TTITLE7=Baby I Love You
TTITLE8=Runnin' From The Blues
TTITLE9=Hold Me
TTITLE10=Cat Squirrel
EXTD=YEAR: 2009
EXTT0=
EXTT1=
EXTT2=
EXTT3=
EXTT4=
EXTT5=
EXTT6=
EXTT7=
EXTT8=
EXTT9=
EXTT10=
PLAYORDER=
